<?xml version="1.0" standalone="no"?>
<!DOCTYPE svg PUBLIC "-//W3C//DTD SVG 20010904//EN"
 "http://www.w3.org/TR/2001/REC-SVG-20010904/DTD/svg10.dtd">
<svg version="1.0" xmlns="http://www.w3.org/2000/svg"
 width="800.000000pt" height="800.000000pt" viewBox="0 0 800.000000 800.000000"
 preserveAspectRatio="xMidYMid meet">
<metadata>
Created by potrace 1.14, written by Peter Selinger 2001-2017
</metadata>
<g transform="translate(0.000000,800.000000) scale(0.100000,-0.100000)"
fill="#000000" stroke="none">
<path d="M4615 6180 c-4 -6 -10 -8 -14 -6 -4 3 -24 -5 -45 -17 -43 -25 -81
-88 -91 -152 -3 -22 -12 -78 -20 -125 -8 -47 -17 -98 -20 -115 -3 -16 -8 -41
-11 -55 -3 -14 -8 -43 -10 -65 -3 -21 -9 -55 -14 -75 -5 -19 -12 -55 -15 -80
-3 -25 -8 -52 -10 -60 -3 -8 -7 -35 -10 -60 -3 -25 -8 -54 -12 -65 -3 -11 -7
-31 -9 -45 -4 -33 -13 -89 -19 -120 -4 -22 -14 -74 -30 -165 -3 -16 -7 -43
-10 -60 -22 -120 -35 -195 -40 -225 -3 -19 -8 -48 -12 -65 -3 -16 -7 -37 -8
-45 -4 -26 -15 -95 -20 -120 -3 -14 -12 -63 -20 -110 -9 -47 -17 -92 -20 -100
-2 -8 -6 -37 -10 -65 -5 -46 -28 -185 -40 -245 -2 -13 -7 -42 -11 -64 -3 -22
-7 -43 -9 -47 -2 -3 -7 -30 -10 -59 -4 -30 -8 -57 -10 -60 -2 -4 -7 -29 -10
-56 -4 -27 -11 -68 -16 -92 -5 -23 -12 -59 -15 -80 -11 -76 -15 -96 -20 -101
-8 -8 -12 4 -18 49 -3 25 -8 56 -11 70 -5 26 -16 95 -20 120 -1 8 -4 24 -8 35
-3 11 -8 42 -12 69 -3 27 -8 52 -10 55 -3 5 -10 43 -20 106 -5 36 -25 149 -30
175 -3 14 -7 36 -10 50 -3 14 -8 45 -11 70 -3 25 -7 52 -9 60 -2 8 -7 31 -10
50 -7 42 -23 135 -30 170 -3 13 -7 42 -11 65 -3 22 -9 58 -14 80 -5 22 -12 60
-15 85 -4 25 -11 68 -16 95 -5 28 -12 66 -15 85 -5 31 -24 139 -54 310 -6 30
-12 69 -15 85 -16 100 -25 153 -30 175 -7 35 -35 199 -40 235 -2 17 -13 80
-24 140 -11 61 -23 126 -25 145 -17 113 -45 170 -99 200 -50 28 -118 24 -272
-18 -60 -17 -229 -62 -375 -101 -358 -96 -427 -115 -555 -150 -60 -17 -162
-44 -225 -60 -63 -16 -182 -48 -265 -71 -82 -22 -157 -42 -165 -44 -8 -2 -35
-9 -60 -16 -25 -7 -52 -14 -60 -16 -28 -6 -355 -94 -390 -104 -29 -9 -557
-151 -610 -164 -182 -46 -343 -92 -370 -106 -65 -34 -94 -81 -92 -149 1 -31
45 -180 61 -206 3 -5 6 -14 8 -20 2 -9 116 -322 129 -355 4 -8 21 -55 40 -105
34 -93 80 -220 132 -360 16 -44 91 -249 167 -455 75 -206 161 -440 190 -520
30 -80 100 -271 156 -425 56 -154 108 -296 115 -315 7 -19 49 -133 93 -253 44
-120 88 -232 98 -250 11 -18 38 -42 61 -55 l41 -23 618 -6 c920 -9 851 -10
902 17 25 12 184 105 354 206 169 101 310 184 312 184 4 0 358 209 415 245 70
44 89 55 98 55 5 0 72 -38 151 -85 78 -47 144 -85 146 -85 2 0 82 -47 178
-104 178 -106 628 -370 705 -413 l44 -25 726 6 c400 3 736 8 747 10 11 3 25 5
32 5 23 2 74 54 92 95 10 22 35 88 55 146 21 58 48 132 61 165 12 33 37 101
55 150 18 50 36 99 40 110 5 11 26 70 48 130 37 102 218 593 281 765 16 41 61
165 100 275 40 110 76 209 81 220 5 11 20 52 33 90 30 85 143 395 163 448 109
284 253 697 255 732 6 106 -56 156 -243 200 -9 2 -51 13 -94 25 -42 12 -88 24
-102 26 -14 3 -33 9 -44 15 -10 5 -18 7 -18 5 0 -3 -11 -1 -25 4 -14 5 -36 12
-48 14 -29 6 -64 16 -192 51 -33 9 -100 27 -150 40 -49 13 -133 36 -185 50
-52 14 -103 28 -113 30 -10 2 -27 7 -37 10 -10 3 -27 8 -37 10 -10 2 -85 23
-168 45 -159 43 -175 48 -202 54 -34 8 -210 55 -358 95 -159 43 -480 130 -505
136 -8 2 -42 11 -75 20 -33 9 -68 18 -77 21 -21 5 -18 4 -163 43 -244 64 -313
83 -380 102 -38 11 -85 22 -103 24 -18 2 -36 7 -41 10 -5 3 -12 1 -16 -5z
m-1780 -1240 c10 -65 13 -81 19 -115 11 -57 38 -210 42 -240 2 -16 10 -65 18
-110 9 -44 18 -95 21 -112 3 -18 7 -48 10 -65 3 -18 8 -40 10 -48 2 -8 7 -33
10 -55 2 -22 7 -51 10 -65 2 -13 7 -42 10 -65 3 -22 8 -47 10 -55 2 -8 7 -28
10 -45 2 -16 7 -39 9 -50 5 -29 19 -107 21 -125 4 -23 44 -262 50 -290 5 -25
21 -115 30 -167 2 -16 7 -39 9 -53 3 -14 8 -41 10 -61 l5 -36 -85 -49 c-47
-27 -97 -56 -112 -65 -38 -23 -251 -148 -287 -169 -16 -9 -56 -33 -88 -52
l-58 -34 -247 3 c-136 1 -299 2 -363 3 l-117 0 -22 63 c-13 34 -29 76 -36 92
-42 100 -71 197 -61 200 7 2 27 8 46 14 19 6 35 10 36 9 9 -14 35 -78 35 -86
0 -22 53 -128 74 -147 43 -40 63 -42 351 -43 l280 0 95 55 c52 31 104 61 115
67 254 141 300 176 311 235 6 28 -3 124 -19 211 -2 8 -7 38 -11 65 -4 28 -10
61 -13 75 -10 52 -34 186 -38 219 -9 58 -46 113 -93 136 -56 28 -78 26 -267
-25 -44 -12 -87 -23 -95 -25 -8 -2 -91 -24 -185 -50 -93 -26 -177 -48 -185
-50 -8 -2 -118 -31 -245 -65 -216 -58 -375 -100 -381 -100 -6 0 -34 83 -29 88
5 6 149 45 575 158 74 20 143 38 153 39 9 2 21 6 25 9 5 3 19 7 33 10 13 3 65
16 114 29 50 13 155 42 235 63 176 47 221 70 248 127 21 44 21 86 3 181 -6 28
-13 71 -16 96 -3 25 -8 52 -10 60 -5 19 -16 77 -20 110 -14 101 -43 150 -110
182 -42 20 -82 16 -220 -21 -38 -10 -115 -31 -170 -45 -54 -15 -133 -36 -175
-47 -41 -12 -82 -22 -90 -25 -8 -2 -64 -17 -125 -33 -60 -16 -137 -37 -170
-46 -33 -9 -144 -38 -246 -66 -103 -27 -195 -52 -205 -54 -11 -2 -35 -9 -54
-14 -19 -6 -36 -11 -36 -11 -3 0 -34 81 -34 89 0 5 17 12 38 16 20 5 42 9 47
11 6 2 19 5 30 7 11 3 40 10 65 17 25 7 53 14 62 15 10 2 22 6 26 9 5 3 19 7
33 10 13 3 74 19 134 35 182 50 269 73 285 76 8 2 47 13 85 24 39 11 81 22 95
25 14 3 66 16 115 30 165 45 610 164 630 168 27 6 32 0 40 -52z m2515 12 c80
-22 217 -58 305 -82 88 -23 181 -48 206 -56 25 -8 55 -16 67 -19 11 -2 155
-40 319 -84 164 -44 325 -87 358 -96 33 -9 69 -18 80 -20 34 -8 157 -44 161
-48 4 -4 -24 -77 -31 -85 -2 -2 -45 8 -97 22 -51 14 -178 49 -283 77 -104 27
-239 64 -300 80 -60 17 -117 32 -125 34 -13 3 -109 28 -150 40 -12 4 -214 56
-270 71 -8 2 -46 12 -85 23 -117 32 -171 31 -215 -5 -32 -27 -59 -71 -66 -107
-2 -12 -8 -44 -14 -72 -10 -52 -19 -105 -25 -140 -4 -26 -14 -83 -21 -116 -28
-137 -4 -209 83 -253 24 -12 248 -76 318 -91 6 -1 30 -8 55 -15 25 -7 50 -14
55 -16 6 -1 64 -16 130 -34 66 -17 127 -33 135 -35 8 -2 15 -4 15 -5 0 -1 9
-3 20 -6 11 -2 137 -36 280 -74 143 -39 268 -73 279 -75 10 -2 20 -6 23 -8 3
-3 -48 -148 -102 -287 -19 -51 -28 -74 -31 -85 -1 -5 -32 -91 -69 -190 -37
-99 -80 -218 -97 -265 -17 -47 -36 -90 -42 -97 -8 -9 -106 -13 -371 -14 l-360
-3 -310 183 c-170 101 -311 184 -313 186 -2 2 15 112 32 200 2 11 9 53 16 93
6 39 14 72 16 72 3 0 25 -5 50 -11 41 -11 45 -14 39 -38 -26 -123 -32 -205
-17 -242 11 -28 68 -89 83 -89 5 0 28 -11 50 -26 22 -14 55 -33 72 -43 18 -10
95 -55 172 -99 l140 -81 275 0 c379 0 354 -15 461 277 34 92 75 203 91 247 17
44 32 100 34 124 8 86 -51 155 -153 180 -21 5 -74 19 -118 31 -89 24 -91 24
-258 69 -64 18 -125 34 -135 36 -9 1 -48 12 -87 23 -75 21 -142 39 -360 97
-243 64 -255 68 -250 85 4 14 12 58 20 110 2 14 6 34 8 45 3 11 8 40 12 65 4
25 9 54 12 65 2 11 6 36 9 55 3 19 9 55 14 80 5 25 14 74 19 110 6 36 13 76
16 90 3 14 7 43 10 65 3 21 9 55 14 75 5 19 12 56 15 83 6 55 12 68 29 62 7
-2 77 -22 157 -43z"/>
</g>
</svg>
